# xmcd
#
# Track frame offsets:
#	150
#	13969
#	28215
#	41142
#	53924
#	68188
#	85825
#	99642
#	113888
#	126815
#	139597
#	154020
#
# Disc length: 2288 seconds
#
# Revision: 1
# Processed by: cddbd v1.5.2PL0 Copyright (c) Steve Scherf et al.
# Submitted via: audiograbber 1.83.01
#
DISCID=a508ee0c
DTITLE=Various Artist - Country Classics
DYEAR=1900
DGENRE=Country
TTITLE0=Hank Williams - Hey Good Lookin
TTITLE1=Loretta Lynn - Coal Miner's Daughter
TTITLE2=Tammy Wynette - Stand By Your Man
TTITLE3=Patsy Cline - Crazy
TTITLE4=Lynn Anderson - Rose Garden
TTITLE5=Willie Nelson - Always on my Mind
TTITLE6=Hank Williams - Hey Good Lookin (vocal)
TTITLE7=Loretta Lynn - Coal Miner's Daughter (vocal)
TTITLE8=Tammy Wynette - Stand By Your Man (vocal)
TTITLE9=Patsy Cline  - Crazy (vocal)
TTITLE10=Lynn Anderson - Rose Garden (vocal)
TTITLE11=Willie Nelson - Always on my Mind (vocal)
EXTD=
EXTT0=
EXTT1=
EXTT2=
EXTT3=
EXTT4=
EXTT5=
EXTT6=
EXTT7=
EXTT8=
EXTT9=
EXTT10=
EXTT11=
PLAYORDER=
